<svg enable-background="new 0 0 525 49.6" viewBox="0 0 525 49.6" xmlns="http://www.w3.org/2000/svg">
    <defs>
        <style>
            .cls-logobug-1{fill:#cec4a5;}.cls-logobug-2{fill:#41201f;}.cls-logobug-3{fill:#ee2937;}.cls-logobug-4{fill:#802729;}.cls-logobug-5{fill:#b22029;}
        </style>
    </defs>
    <title>Asset 1</title>
    <g transform="scale(0.35)" id="Layer_2" data-name="Layer 2">
        <g id="Layer_1-2" data-name="Layer 1">
            <path class="cls-logobug-1" d="M209.8,139.4h46.46a69,69,0,0,0,69-69V0H278.8"/>
            <path class="cls-logobug-2" d="M115.47,0H69A69,69,0,0,0,0,69v70.4H46.47"/>
            <path class="cls-logobug-3" d="M163.33,139.4H209.8a69,69,0,0,0,69-69V0H232.33"/>
            <path class="cls-logobug-4" d="M161.94,0H115.47a69,69,0,0,0-69,69v70.4H92.93"/>
            <path class="cls-logobug-5" d="M92.93,69v70.4h70.4a69,69,0,0,0,69-69V0H161.94A69,69,0,0,0,92.93,69Z"/>
        </g>
    </g>
    <g fill="#232221">
        <path d="m143.6 31.2c.1 2.3 1.7 3.7 4.2 3.7 2.4 0 4.1-1.6 4.1-3.8s-1.1-3.4-4.1-4.4c-4.4-1.6-5.1-1.9-6.4-3.2-1.6-1.5-2.6-3.8-2.6-6.1 0-4.7 4-8.5 8.9-8.5s8.7 3.7 9 8.7h-5.8c-.2-1.9-1.4-3-3.3-3s-3.2 1.2-3.2 3c0 2 1 2.8 5.1 4.2 5.5 1.9 8 4.7 8 9.1 0 5.4-4.4 9.7-9.9 9.7s-9.7-3.9-9.9-9.3h5.9z"/>
        <path d="m178.7 17.1h-.5v2.4c-1.8-1.9-4.5-3.1-7.2-3.1-6.5 0-11.4 5.2-11.4 12 0 7.1 4.7 12.3 11.1 12.3 2.2 0 4.1-.6 6.1-2 .7-.4 1.1-.8 1.4-1v2.3h.5 5v-22.9zm-6.8 18.3c-3.8 0-6.8-2.9-6.8-6.7 0-4 2.9-7 6.8-7 3.8 0 6.7 2.9 6.7 6.8-.1 3.9-2.9 6.9-6.7 6.9z"/>
        <path d="m243.4 17.1h-.5v2.4c-1.8-1.9-4.5-3.1-7.2-3.1-6.5 0-11.4 5.2-11.4 12 0 7.1 4.7 12.3 11.1 12.3 2.2 0 4.1-.6 6.1-2 .7-.4 1.1-.8 1.4-1v2.3h.5 5v-22.9zm-6.8 18.3c-3.8 0-6.8-2.9-6.8-6.7 0-4 2.9-7 6.8-7 3.8 0 6.7 2.9 6.7 6.8-.1 3.9-2.9 6.9-6.7 6.9z"/>
        <path d="m206.2 19.8c-1.6-2-4.4-3.4-7-3.4-2.2 0-4 .7-5.8 2.4v-1.6h-.4-5.1v22.8h5.5v-10.9c0-2.9.2-4.3.9-5.3.7-1.2 2.3-2 3.8-2 3.1 0 4.6 2.3 4.6 7v11.2h5.5v-12.4c0-3.9-.6-6-2-7.8z"/>
        <path d="m221.8 22v-4.9h-4.4v-7.5h-5.5v21.4c0 5.9 3.3 9.7 9.6 9v-5c-2.7.2-4.1-1-4.1-4v-9z"/>
        <path d="m308.2 16.4c-6.7 0-12.2 5.5-12.2 12.1 0 6.7 5.5 12.2 12.1 12.2 6.7 0 12.1-5.4 12.1-12.2.1-6.7-5.2-12.1-12-12.1zm.1 19c-3.8 0-6.7-2.9-6.7-6.9 0-3.7 3-6.8 6.7-6.8 3.6 0 6.6 3.2 6.6 6.9 0 3.8-2.9 6.8-6.6 6.8z"/>
        <path d="m290.3 9.6h-5.9l-7 21-6.9-21h-6l-4.6 30.4h5.6l2.2-18.3c.2-1.3.3-2.7.4-4.5l7.5 22.8h3.7l7.5-22.8c0 1.5.2 3.1.4 4.5l2.2 18.3h5.6z"/>
        <path d="m373.3 33.2c-1.2 1.4-2.7 2.1-4.4 2.1-4 0-6.8-2.9-6.8-6.8s2.7-6.8 6.6-6.8c2 0 3.5.7 4.7 2.2l3.9-3.9c-2.2-2.3-5.2-3.6-8.6-3.6-6.7 0-12.1 5.4-12.1 12.1s5.4 12.2 12.2 12.2c3.4 0 6.4-1.3 8.6-3.6z"/>
        <path d="m347.8 17.1h5.5v22.8h-5.5z"/>
        <path d="m397.3 17.1h-.5v2.4c-1.8-1.9-4.5-3.1-7.2-3.1-6.5 0-11.4 5.2-11.4 12 0 7.1 4.7 12.3 11.1 12.3 2.2 0 4.1-.6 6.1-2 .7-.4 1.1-.8 1.4-1v2.3h.5 5v-22.9zm-6.8 18.3c-3.8 0-6.8-2.9-6.8-6.7 0-4 2.9-7 6.8-7 3.8 0 6.7 2.9 6.7 6.8s-2.8 6.9-6.7 6.9z"/>
        <path d="m341.7 19.8c-1.6-2-4.4-3.4-7-3.4-2.2 0-4 .7-5.8 2.4v-1.6h-.4-5.1v22.8h5.5v-10.9c0-2.9.2-4.3.9-5.3.7-1.2 2.3-2 3.8-2 3.1 0 4.6 2.3 4.6 7v11.2h5.5v-12.4c-.1-3.9-.6-6-2-7.8z"/>
        <path d="m347.8 12v2.8h2.8c1.5 0 2.7-1.2 2.7-2.7v-2.8h-2.8c-1.5 0-2.7 1.2-2.7 2.7z"/>
        <path d="m417 31.4c.4 3.9 2.7 6.1 6.2 6.1 3.4 0 6.2-2.7 6.2-6 0-3.2-2.1-5.2-6.8-6.4-3.2-.8-4.5-1.4-5.7-2.7-1.4-1.4-2.2-3.3-2.2-5.4 0-4.6 3.6-8.1 8.5-8.1 4.8 0 8.4 3.6 8.5 8.2h-3.2c-.2-3.2-2.4-5.3-5.5-5.3-2.9 0-5.3 2.3-5.3 5.3 0 2.9 1.5 4.2 6 5.4 3.6 1 4.3 1.3 5.7 2.4 1.9 1.6 3 4 3 6.6 0 4.9-4.1 8.9-9.3 8.9-5.4 0-9.2-3.6-9.5-9z"/>
        <path d="m467.4 39.9h-2.9v-3.5c-1.4 2.7-3.9 4-7.5 4-3.1 0-5.7-1.2-7.6-3.6-1.3-1.7-1.9-3.9-1.9-7.1v-12.3h3v12.4c0 4.9 2.6 7.8 6.9 7.8 4.1 0 6.9-3.1 6.9-7.8v-12.4h3v22.5z"/>
        <path d="m490.1 9.6v11.4c-2.3-2.7-5.3-4.1-8.7-4.1-6.6 0-11.7 5.2-11.7 11.8 0 6.5 5.2 11.8 11.7 11.8 3.8 0 6.4-1.3 9-4.6v4.1h2.9v-30.4zm-8.8 28c-4.8 0-8.7-4.1-8.7-9 0-4.8 3.9-8.8 8.6-8.8 5 0 9 4 9 8.8.1 4.9-4 9-8.9 9z"/>
        <path d="m496.2 9.6h3v5.1h-3z"/>
        <path d="m496.2 17.4h3v22.5h-3z"/>
        <path d="m513.2 16.9c-6.4 0-11.7 5.3-11.7 11.8s5.3 11.8 11.7 11.8 11.8-5.4 11.8-11.8-5.4-11.8-11.8-11.8zm.1 20.7c-4.8 0-8.7-3.9-8.7-8.7 0-5 3.9-9 8.7-9 4.7 0 8.7 4 8.7 8.7 0 5-3.8 9-8.7 9z"/>
        <path d="m444.8 20.2v-2.7h-6.9v-7.9h-3v21.4c0 5.9 3.3 9.7 9.6 9v-2.7c-2.7.2-6.6-.6-6.6-6.2v-10.9z"/>
        <path d="m520.2 14.7v-2.7h-.8v-.3h2v.3h-.8v2.7z"/>
        <path d="m524.7 14.7h-.3l-.3-2.4c0-.1 0-.2 0-.2s0 .1-.1.2l-.8 2.4h-.2l-.8-2.4c0-.1-.1-.2-.1-.2v.2l-.3 2.4h-.3l.4-3h.3l.8 2.3v.2s0-.1 0-.2l.8-2.3h.3z"/>
    </g>
</svg>
