<?xml version="1.0" encoding="utf-8"?>
<!-- Generator: Adobe Illustrator 23.0.4, SVG Export Plug-In . SVG Version: 6.00 Build 0)  -->
<svg version="1.1" id="Layer_1" xmlns="http://www.w3.org/2000/svg" xmlns:xlink="http://www.w3.org/1999/xlink" x="0px" y="0px"
	 viewBox="0 0 348.6 113.1" style="enable-background:new 0 0 348.6 113.1;" xml:space="preserve">
<style type="text/css">
	.st0{fill:#DFD9C8;}
	.st1{fill:#9D343A;}
</style>
<g>
	<g>
		<path class="st0" d="M2.7,95.3l33.8-32.6l6-5.6c9.1-8.4,12.3-14.8,12.3-21.7c0-11-9.6-20.2-20.9-20.2c-12.9,0-20.9,9.1-21,23.6
			H3.5C3.4,19,15.6,6,34.5,6c16.5,0,29.9,13.1,29.9,29.3c0,5.4-1.7,11.3-4.9,16.4c-2.5,4.2-3.9,5.8-12.6,14.1L16,95.3h47.9v8.7H2.7
			V95.3z"/>
	</g>
	<g>
		<path class="st0" d="M112.9,95.3H83.6V54.5c0-11,4.5-21,11.7-28.2c4.8-4.8,10.9-8.4,17.6-10.3V7.1c-8.9,2-17.1,6.4-23.7,13.1
			C80,29.3,74.9,41.5,74.9,54.5V104h38V95.3z"/>
		<path class="st0" d="M135.1,5.9v8.7h29.3v40.8c0,11-4.5,21-11.7,28.2c-4.8,4.8-10.9,8.4-17.6,10.3v8.9c8.9-2,17.1-6.4,23.7-13.1
			C168,80.6,173,68.4,173,55.4V5.9H135.1z"/>
	</g>
	<g>
		<path class="st1" d="M194.3,54.1c0-4.6,3.7-8.3,8.3-8.3c4.6,0,8.3,3.7,8.3,8.3c0,4.6-3.7,8.3-8.3,8.3
			C198,62.4,194.3,58.6,194.3,54.1z M208.1,54.1c0-3-2.4-5.4-5.4-5.4c-3,0-5.4,2.4-5.4,5.4c0,2.9,2.4,5.3,5.4,5.3
			C205.7,59.4,208.1,57,208.1,54.1z"/>
		<path class="st1" d="M213.5,46.1h8.1v2.9h-5.2v3.7h4.9v2.9h-4.9V62h-2.9V46.1z"/>
		<path class="st1" d="M230.3,54.1c0-4.6,3.9-8.3,8.5-8.3c2.2,0,4.4,0.9,6,2.4l-2.2,2.1c-1-1-2.4-1.5-3.9-1.5
			c-3.1,0-5.5,2.4-5.5,5.3c0,3,2.4,5.4,5.6,5.4c1.2,0,2.3-0.4,3.1-1v-1.7h-3.3v-2.9h6.2v6c-1.5,1.6-3.7,2.5-6.1,2.5
			C234.1,62.4,230.3,58.7,230.3,54.1z"/>
		<path class="st1" d="M247.9,46.1h4c2.3,0,3,0.2,4,0.8c1.4,0.9,2.2,2.4,2.2,4.1s-0.8,3.3-2.1,4.2c-0.5,0.3-1,0.5-1.8,0.7l4.5,6.2
			h-3.7l-4.2-6.1h0V62h-3V46.1z M251.8,53.1c1.1,0,1.5,0,2-0.2c0.8-0.3,1.4-1.1,1.4-1.9c0-0.8-0.5-1.6-1.4-1.9
			c-0.5-0.2-0.7-0.2-1.9-0.2h-1.1v4.2H251.8z"/>
		<path class="st1" d="M260.8,46.1h8.6v2.9h-5.6v3.6h5.4v2.9h-5.4v3.7h5.6V62h-8.6V46.1z"/>
		<path class="st1" d="M276.8,46.1h2.3l6.7,16h-3.3l-1.7-4.1h-5.7l-1.8,4.1h-3.3L276.8,46.1z M279.6,55l-1.7-4.9l-1.7,4.9H279.6z"/>
		<path class="st1" d="M287.6,48.9h-3v-2.9h8.9v2.9h-2.9V62h-3V48.9z"/>
		<path class="st1" d="M296.1,46.1h3.3l6.7,11.7V46.1h3v16h-3.3l-6.7-11.7v11.7h-3V46.1z"/>
		<path class="st1" d="M312.3,46.1h8.6v2.9h-5.6v3.6h5.4v2.9h-5.4v3.7h5.6V62h-8.6V46.1z"/>
		<path class="st1" d="M322.9,57.5h3.1c0,1.2,0.9,2,2.2,2c1.3,0,2.2-0.8,2.2-2s-0.6-1.8-2.2-2.4c-2.3-0.8-2.7-1-3.4-1.7
			c-0.8-0.8-1.4-2-1.4-3.2c0-2.5,2.1-4.5,4.7-4.5c2.6,0,4.6,1.9,4.7,4.6h-3.1c-0.1-1-0.7-1.6-1.7-1.6c-1,0-1.7,0.6-1.7,1.6
			c0,1,0.5,1.5,2.7,2.2c2.9,1,4.2,2.4,4.2,4.7c0,2.9-2.3,5.1-5.2,5.1C325.2,62.4,323,60.3,322.9,57.5z"/>
		<path class="st1" d="M335.3,57.5h3.1c0,1.2,0.9,2,2.2,2c1.3,0,2.2-0.8,2.2-2s-0.6-1.8-2.2-2.4c-2.3-0.8-2.7-1-3.4-1.7
			c-0.8-0.8-1.4-2-1.4-3.2c0-2.5,2.1-4.5,4.7-4.5c2.6,0,4.6,1.9,4.7,4.6h-3.1c-0.1-1-0.7-1.6-1.7-1.6c-1,0-1.7,0.6-1.7,1.6
			c0,1,0.5,1.5,2.7,2.2c2.9,1,4.2,2.4,4.2,4.7c0,2.9-2.3,5.1-5.2,5.1C337.6,62.4,335.4,60.3,335.3,57.5z"/>
	</g>
	<g>
		<path class="st1" d="M122.9,12.8L119,5.3h2.4l2.6,5.4l2.6-5.4h2.4l-3.9,7.5v4.4h-2.2V12.8z"/>
		<path class="st1" d="M121,27h6.3v2.1h-4.1v2.7h4V34h-4v2.7h4.1v2.1H121V27z"/>
		<path class="st1" d="M123.1,48.8h1.7l4.9,11.8h-2.4l-1.3-3h-4.2l-1.3,3h-2.4L123.1,48.8z M125.2,55.4l-1.3-3.6l-1.3,3.6H125.2z"/>
		<path class="st1" d="M120.5,70.5h3c1.7,0,2.3,0.1,3,0.6c1,0.7,1.6,1.8,1.6,3c0,1.2-0.6,2.4-1.6,3.1c-0.4,0.3-0.8,0.4-1.3,0.5
			l3.4,4.6h-2.7l-3.1-4.5h0v4.5h-2.2V70.5z M123.3,75.7c0.8,0,1.1,0,1.5-0.1c0.6-0.2,1-0.8,1-1.4s-0.4-1.2-1-1.4
			c-0.4-0.1-0.5-0.1-1.4-0.1h-0.8v3.1H123.3z"/>
		<path class="st1" d="M120.1,100.6h2.3c0,0.9,0.7,1.4,1.6,1.4c0.9,0,1.6-0.6,1.6-1.5c0-0.9-0.4-1.3-1.6-1.7c-1.7-0.6-2-0.7-2.5-1.2
			c-0.6-0.6-1-1.5-1-2.4c0-1.8,1.6-3.3,3.5-3.3c1.9,0,3.4,1.4,3.5,3.4h-2.3c-0.1-0.7-0.5-1.2-1.3-1.2c-0.8,0-1.2,0.5-1.2,1.2
			c0,0.8,0.4,1.1,2,1.6c2.1,0.7,3.1,1.8,3.1,3.5c0,2.1-1.7,3.8-3.8,3.8C121.9,104.3,120.2,102.7,120.1,100.6z"/>
	</g>
</g>
</svg>
