<?xml version="1.0" encoding="utf-8"?>
<!-- Generator: Adobe Illustrator 23.0.3, SVG Export Plug-In . SVG Version: 6.00 Build 0)  -->
<svg version="1.1" id="Layer_1" xmlns="http://www.w3.org/2000/svg" xmlns:xlink="http://www.w3.org/1999/xlink" x="0px" y="0px"
	 viewBox="0 0 692.74 57.78" style="enable-background:new 0 0 692.74 57.78;" xml:space="preserve">
<style type="text/css">
	.st0{fill:#3A372D;}
	.st1{fill:#B22028;}
</style>
<g>
	<g>
		<path class="st0" d="M313.48,32.52v1.83h-4.97v-1.83h1.27v-1.81l-3.22-5.83h-1.03v-1.83h4.78v1.83h-1.11l1.78,3.62h0.06l1.75-3.62
			h-1.11v-1.83h4.77v1.83h-1.03l-3.19,5.86v1.78H313.48z"/>
	</g>
	<g>
		<path class="st0" d="M334.04,29.98c0,1.3-0.06,3.59-2.81,4.27c-0.79,0.17-1.49,0.24-2.14,0.24c-0.67,0-1.35-0.06-2.14-0.24
			c-2.75-0.68-2.81-2.96-2.81-4.26V27.4c0-1.3,0.06-3.57,2.81-4.26c0.79-0.17,1.48-0.24,2.14-0.24c0.65,0,1.35,0.06,2.14,0.24
			c2.75,0.68,2.81,2.97,2.81,4.27V29.98z M326.56,29.99c0,2.18,0.97,2.51,2.53,2.51c1.78,0,2.53-0.57,2.53-2.53v-2.56
			c0-1.95-0.75-2.53-2.53-2.53c-1.56,0-2.53,0.33-2.53,2.51V29.99z"/>
	</g>
	<g>
		<path class="st0" d="M348.55,24.88v-1.83h1.27h2.43h1.27v1.83h-1.27v5.23c0,3.15-1.05,4.38-4.37,4.38h-0.13
			c-3.45,0-4.37-1.4-4.37-4.38v-5.23h-1.27v-1.83h4.97v1.83h-1.27v5.23c0,1.62,0.41,2.4,1.94,2.4h0.13c1.46,0,1.94-0.67,1.94-2.4
			v-5.23H348.55z"/>
	</g>
	<g>
		<path class="st0" d="M366.4,32.52v1.83h-4.91v-1.83h1.27v-7.64h-1.27v-1.83h5.58c2.37,0,3.86,0.43,3.86,3.64
			c0,2.45-0.91,3.19-2.54,3.45l-0.11,0.02v0.05l1.81,2.32h1.21v1.83h-2.73l-2.75-4.12h-0.6v2.29H366.4z M367.06,28.29
			c0.86,0,1.41-0.14,1.41-1.6s-0.56-1.65-1.41-1.65h-1.86v3.26H367.06z"/>
	</g>
	<g>
		<path class="st0" d="M395.08,24.94c-0.41-0.08-0.78-0.08-0.97-0.08c-1.16,0-1.88,0.24-1.88,1.19c0,0.59,0.45,0.86,1.27,1.27
			l1.95,0.98c1.35,0.7,2.11,1.56,2.11,3.21c0,2.45-1.65,2.97-4.42,2.97c-0.57,0-2.19-0.17-3.57-0.52v-2.97h2.14v1.43
			c0.64,0.14,1.18,0.17,1.43,0.17c1.22,0,1.99-0.3,1.99-1.08c0-0.73-0.29-0.98-0.84-1.27l-2.07-1.05c-1.6-0.84-2.45-1.51-2.45-3.19
			c0-2.48,1.52-3.1,4.32-3.1c0.52,0,1.91,0.11,3.11,0.46v2.84h-2.14V24.94z"/>
	</g>
	<g>
		<path class="st0" d="M412.95,32.52v1.83h-4.97v-1.83h1.27v-7.48h-1.62v1.75h-2.14v-3.73h9.98v3.73h-2.14v-1.75h-1.64v7.48H412.95z
			"/>
	</g>
	<g>
		<path class="st0" d="M433.47,29.98c0,1.3-0.06,3.59-2.81,4.27c-0.79,0.17-1.49,0.24-2.14,0.24c-0.67,0-1.35-0.06-2.14-0.24
			c-2.75-0.68-2.81-2.96-2.81-4.26V27.4c0-1.3,0.06-3.57,2.81-4.26c0.79-0.17,1.48-0.24,2.14-0.24c0.65,0,1.35,0.06,2.14,0.24
			c2.75,0.68,2.81,2.97,2.81,4.27V29.98z M425.99,29.99c0,2.18,0.97,2.51,2.53,2.51c1.78,0,2.53-0.57,2.53-2.53v-2.56
			c0-1.95-0.75-2.53-2.53-2.53c-1.56,0-2.53,0.33-2.53,2.51V29.99z"/>
	</g>
	<g>
		<path class="st0" d="M446.71,32.52v1.83h-4.91v-1.83h1.27v-7.64h-1.27v-1.83h5.58c2.37,0,3.86,0.43,3.86,3.64
			c0,2.45-0.91,3.19-2.54,3.45l-0.11,0.02v0.05l1.81,2.32h1.21v1.83h-2.73l-2.75-4.12h-0.6v2.29H446.71z M447.37,28.29
			c0.86,0,1.41-0.14,1.41-1.6s-0.56-1.65-1.41-1.65h-1.86v3.26H447.37z"/>
	</g>
	<g>
		<path class="st0" d="M466.89,32.52v1.83h-4.97v-1.83h1.27v-1.81l-3.22-5.83h-1.03v-1.83h4.78v1.83h-1.11l1.78,3.62h0.06l1.75-3.62
			h-1.11v-1.83h4.76v1.83h-1.03l-3.19,5.86v1.78H466.89z"/>
	</g>
	<g>
		<path class="st0" d="M492.9,30.33c0,0.64-0.05,1.72-1.54,2.08c-0.33,0.05-0.65,0.08-1,0.08c-0.32,0-0.6-0.03-0.92-0.08
			c-1.54-0.35-1.57-1.45-1.57-2.08v-0.65c0-0.64,0.03-1.7,1.57-2.03c0.37-0.1,0.65-0.13,0.92-0.13c0.3,0,0.64,0.03,1,0.13
			c1.49,0.35,1.54,1.41,1.54,2.03V30.33z"/>
	</g>
	<g>
		<path class="st1" d="M511.76,34.35v-1.83h1.27v-7.64h-1.27v-1.83h1.27h4.53c1.81,0,3.48,0.25,3.48,3.03v0.29
			c0,0.95-0.48,1.7-1.29,2v0.03c1.06,0.32,1.75,1.18,1.75,2.33v0.49c-0.06,2.84-2.05,3.11-3.72,3.11h-4.75H511.76z M515.46,27.63
			h2.1c0.51,0,1.03-0.19,1.03-1.19V26.2c0-0.94-0.49-1.16-1.03-1.16h-2.1V27.63z M517.78,32.34c0.57,0,1.22-0.22,1.27-1.29v-0.3
			c0-1.18-0.75-1.27-1.33-1.27h-2.26v2.86H517.78z"/>
	</g>
	<g>
		<path class="st1" d="M529.67,34.35v-1.83h1.27v-7.64h-1.27v-1.83h8.72v3.16h-2.14v-1.18h-2.88v2.73h3.46v1.97h-3.46v2.6h3v-1.18
			h2.14v3.18H529.67z"/>
	</g>
	<g>
		<path class="st1" d="M553.24,24.91c-0.32-0.02-0.6-0.02-0.81-0.02c-1.37,0-3.07-0.03-3.13,2.38v2.75c0,0.73,0.09,2.02,1.27,2.32
			c0.35,0.08,0.78,0.16,1.19,0.16c0.65,0,1.49-0.16,2.08-0.38v-2.03h-2.21v-1.79h4.51v4.96l-0.25,0.16
			c-1.02,0.57-2.4,1.08-4.16,1.08c-0.54-0.02-1.13-0.1-1.73-0.22c-2.94-0.75-3.13-2.92-3.13-4.24v-2.67c0-1.33,0.08-3.53,3.13-4.24
			c0.67-0.16,1.35-0.21,2-0.21c1.17,0,2.32,0.11,3.38,0.33v2.97h-2.14V24.91z"/>
	</g>
	<g>
		<path class="st1" d="M569.36,32.52v1.83h-3.7h-1.27v-1.83h1.27v-7.64h-1.27v-1.83h1.27h2.43h1.27v1.83h-1.27v7.64H569.36z"/>
	</g>
	<g>
		<path class="st1" d="M588.86,23.05v1.83h-1.27v9.47h-2.49l-3.76-6.93h-0.06v5.1h1.32v1.83h-5.02v-1.83h1.27v-7.64h-1.27v-1.83
			h3.91l3.62,6.85h0.06v-5.02h-1.32v-1.83H588.86z"/>
	</g>
	<g>
		<path class="st1" d="M602.43,24.94c-0.41-0.08-0.78-0.08-0.97-0.08c-1.16,0-1.87,0.24-1.87,1.19c0,0.59,0.44,0.86,1.27,1.27
			l1.95,0.98c1.35,0.7,2.11,1.56,2.11,3.21c0,2.45-1.65,2.97-4.42,2.97c-0.57,0-2.19-0.17-3.57-0.52v-2.97h2.14v1.43
			c0.63,0.14,1.17,0.17,1.43,0.17c1.22,0,1.99-0.3,1.99-1.08c0-0.73-0.29-0.98-0.84-1.27l-2.06-1.05c-1.6-0.84-2.45-1.51-2.45-3.19
			c0-2.48,1.53-3.1,4.32-3.1c0.52,0,1.91,0.11,3.11,0.46v2.84h-2.14V24.94z"/>
	</g>
	<g>
		<path class="st1" d="M627.03,29.55v2.97h1.27v1.83h-3.7h-1.27v-1.83h1.27v-7.64h-1.27v-1.83h1.27h2.43h1.27v1.83h-1.27v2.68h4.03
			v-2.68h-1.27v-1.83h1.27h2.43h1.27v1.83h-1.27v7.64h1.27v1.83h-3.7h-1.27v-1.83h1.27v-2.97H627.03z"/>
	</g>
	<g>
		<path class="st1" d="M642.97,34.35v-1.83h1.27v-7.64h-1.27v-1.83h8.72v3.16h-2.14v-1.18h-2.88v2.73h3.46v1.97h-3.46v2.6h3v-1.18
			h2.14v3.18H642.97z"/>
	</g>
	<g>
		<path class="st1" d="M664.96,32.52v1.83h-4.91v-1.83h1.27v-7.64h-1.27v-1.83h5.58c2.37,0,3.86,0.43,3.86,3.64
			c0,2.45-0.91,3.19-2.54,3.45l-0.11,0.02v0.05l1.81,2.32h1.21v1.83h-2.73l-2.75-4.12h-0.6v2.29H664.96z M665.63,28.29
			c0.86,0,1.41-0.14,1.41-1.6s-0.56-1.65-1.41-1.65h-1.86v3.26H665.63z"/>
	</g>
	<g>
		<path class="st1" d="M677.87,34.35v-1.83h1.27v-7.64h-1.27v-1.83h8.72v3.16h-2.14v-1.18h-2.88v2.73h3.46v1.97h-3.46v2.6h3v-1.18
			h2.14v3.18H677.87z"/>
	</g>
</g>
<g>
	<path class="st1" d="M61.61,19.34c-0.26,0-0.51-0.1-0.71-0.29L50.7,8.84c-0.39-0.39-0.39-1.02,0-1.41s1.02-0.39,1.41,0l10.2,10.2
		c0.39,0.39,0.39,1.02,0,1.41C62.12,19.24,61.86,19.34,61.61,19.34z"/>
</g>
<g>
	<path class="st1" d="M40.98,19.56c-0.26,0-0.51-0.1-0.71-0.29c-0.39-0.39-0.39-1.02,0-1.41L50.7,7.43c0.39-0.39,1.02-0.39,1.41,0
		s0.39,1.02,0,1.41L41.69,19.27C41.49,19.46,41.24,19.56,40.98,19.56z"/>
</g>
<g>
	<path class="st1" d="M51.41,50.42c-0.26,0-0.51-0.1-0.71-0.29L30.06,29.49c-0.19-0.19-0.29-0.44-0.29-0.71s0.11-0.52,0.29-0.71
		l4.73-4.73c0.39-0.39,1.02-0.39,1.41,0s0.39,1.02,0,1.41l-4.02,4.02l19.23,19.23l9.38-9.38c0.39-0.39,1.02-0.39,1.41,0
		s0.39,1.02,0,1.41L52.11,50.13C51.92,50.33,51.66,50.42,51.41,50.42z"/>
</g>
<g>
	<path class="st1" d="M67.42,34.41c-0.26,0-0.51-0.1-0.71-0.29c-0.39-0.39-0.39-1.02,0-1.41l3.92-3.92L59.72,17.87
		c-0.39-0.39-0.39-1.02,0-1.41s1.02-0.39,1.41,0l11.62,11.62c0.19,0.19,0.29,0.44,0.29,0.71s-0.11,0.52-0.29,0.71l-4.63,4.63
		C67.94,34.31,67.68,34.41,67.42,34.41z"/>
</g>
<g>
	<path class="st1" d="M25.06,50.42c-0.26,0-0.51-0.1-0.71-0.29L3.71,29.49c-0.19-0.19-0.29-0.44-0.29-0.71s0.11-0.52,0.29-0.71
		L24.35,7.43c0.39-0.39,1.02-0.39,1.41,0l10.2,10.2c0.39,0.39,0.39,1.02,0,1.41s-1.02,0.39-1.41,0l-9.49-9.49L5.83,28.78
		l19.23,19.23l9.38-9.38c0.39-0.39,1.02-0.39,1.41,0s0.39,1.02,0,1.41L25.77,50.13C25.57,50.33,25.31,50.42,25.06,50.42z"/>
</g>
<g>
	<path class="st1" d="M41.07,34.41c-0.26,0-0.51-0.1-0.71-0.29c-0.39-0.39-0.39-1.02,0-1.41l3.92-3.92L33.38,17.87
		c-0.39-0.39-0.39-1.02,0-1.41s1.02-0.39,1.41,0l11.62,11.62c0.19,0.19,0.29,0.44,0.29,0.71s-0.11,0.52-0.29,0.71l-4.63,4.63
		C41.59,34.31,41.33,34.41,41.07,34.41z"/>
</g>
<g>
	<path class="st1" d="M25.11,50.27c-0.35,0-0.7-0.13-0.96-0.4L3.76,29.49c-0.19-0.19-0.29-0.44-0.29-0.71s0.11-0.52,0.29-0.71
		l20.5-20.5c0.22-0.23,0.53-0.35,0.85-0.35c0,0,0,0,0,0c0.32,0,0.62,0.12,0.85,0.35l20.5,20.5c0.39,0.39,0.39,1.02,0,1.41l-4.7,4.7
		c-0.39,0.39-1.02,0.39-1.41,0s-0.39-1.02,0-1.41l3.99-3.99L25.11,9.55L5.88,28.78l19.23,19.23l9.63-9.63
		c0.39-0.39,1.02-0.39,1.41,0s0.39,1.02,0,1.41L26.08,49.87C25.81,50.14,25.46,50.27,25.11,50.27z M25.68,8.98L25.68,8.98
		C25.68,8.99,25.68,8.99,25.68,8.98z"/>
</g>
<g>
	<path class="st1" d="M51.52,50.42c-0.26,0-0.51-0.1-0.71-0.29l-10.2-10.2c-0.39-0.39-0.39-1.02,0-1.41s1.02-0.39,1.41,0l10.2,10.2
		c0.39,0.39,0.39,1.02,0,1.41C52.03,50.33,51.78,50.42,51.52,50.42z"/>
</g>
<g>
	<path class="st1" d="M51.52,50.42c-0.26,0-0.51-0.1-0.71-0.29c-0.39-0.39-0.39-1.02,0-1.41l10.42-10.42c0.39-0.39,1.02-0.39,1.41,0
		s0.39,1.02,0,1.41L52.23,50.13C52.03,50.33,51.78,50.42,51.52,50.42z"/>
</g>
<g>
	<path class="st1" d="M67.44,34.51c-0.26,0-0.51-0.1-0.71-0.29c-0.39-0.39-0.39-1.02,0-1.41l4.02-4.02L51.52,9.55l-9.38,9.38
		c-0.39,0.39-1.02,0.39-1.41,0s-0.39-1.02,0-1.41L50.82,7.43c0.39-0.39,1.02-0.39,1.41,0l20.64,20.64c0.19,0.19,0.29,0.44,0.29,0.71
		s-0.11,0.52-0.29,0.71l-4.73,4.73C67.95,34.41,67.69,34.51,67.44,34.51z"/>
</g>
<g>
	<path class="st1" d="M42.5,41.4c-0.26,0-0.51-0.1-0.71-0.29L30.17,29.49c-0.39-0.39-0.39-1.02,0-1.41l4.63-4.63
		c0.39-0.39,1.02-0.39,1.41,0s0.39,1.02,0,1.41l-3.92,3.92l10.91,10.91c0.39,0.39,0.39,1.02,0,1.41C43.01,41.3,42.76,41.4,42.5,41.4
		z"/>
</g>
<g>
	<path class="st1" d="M77.87,50.42c-0.26,0-0.51-0.1-0.71-0.29l-10.2-10.2c-0.39-0.39-0.39-1.02,0-1.41s1.02-0.39,1.41,0l9.49,9.49
		L97.1,28.78L77.87,9.55l-9.38,9.38c-0.39,0.39-1.02,0.39-1.41,0s-0.39-1.02,0-1.41L77.17,7.43c0.38-0.38,1.04-0.38,1.41,0
		l20.64,20.64c0.39,0.39,0.39,1.02,0,1.41L78.58,50.13C78.38,50.33,78.13,50.42,77.87,50.42z"/>
</g>
<g>
	<path class="st1" d="M68.85,41.4c-0.26,0-0.51-0.1-0.71-0.29L56.52,29.49c-0.39-0.39-0.39-1.02,0-1.41l4.63-4.63
		c0.39-0.39,1.02-0.39,1.41,0s0.39,1.02,0,1.41l-3.92,3.92l10.91,10.91c0.39,0.39,0.39,1.02,0,1.41C69.36,41.3,69.1,41.4,68.85,41.4
		z"/>
</g>
<g>
	<g>
		<polyline class="st1" points="267.96,28.78 258.84,22.96 258.84,34.6 267.96,28.78 		"/>
	</g>
	<g>
		<path class="st1" d="M253.58,29.78H100.11c-0.55,0-1-0.45-1-1s0.45-1,1-1h153.47c0.55,0,1,0.45,1,1S254.13,29.78,253.58,29.78z"/>
	</g>
</g>
</svg>
